Coordinates
version=1
nRows=17
nColumns=36
inDegrees=yes

Units are S.I. units (second, meters, Newtons, ...)
If the header above contains a line with 'inDegrees', this indicates whether rotational values are in degrees (yes) or radians (no).

endheader
time	pelvis_tilt	pelvis_list	pelvis_rotation	pelvis_tx	pelvis_ty	pelvis_tz	hip_flexion_r	hip_adduction_r	hip_rotation_r	knee_angle_r	knee_angle_r_beta	ankle_angle_r	subtalar_angle_r	mtp_angle_r	hip_flexion_l	hip_adduction_l	hip_rotation_l	knee_angle_l	knee_angle_l_beta	ankle_angle_l	subtalar_angle_l	mtp_angle_l	lumbar_extension	lumbar_bending	lumbar_rotation	arm_flex_r	arm_add_r	arm_rot_r	elbow_flex_r	pro_sup_r	arm_flex_l	arm_add_l	arm_rot_l	elbow_flex_l	pro_sup_l
      3.93750000	    -20.32918637	     -0.61450145	      3.71079568	     -0.86399659	      1.13845596	     -0.10098672	     47.80607984	     -3.52829160	     -3.39053399	     61.81440955	      1.07886497	     27.45932767	    -20.02540262	     -7.49999987	     43.06516203	      6.19762273	     13.55730565	     56.59790860	      0.98781985	     25.94857911	    -22.07834418	     -7.49999987	    -46.45967465	      6.72474394	     -1.58326395	     56.70418259	    -12.27141905	     28.54673945	     30.96243866	     82.82199288	     67.01545256	    -10.50037736	     44.96981267	     32.58109582	     68.52143324
      3.94166670	    -20.21974957	     -0.76924846	      3.21496331	     -0.86803246	      1.13478268	     -0.09620674	     48.12465204	     -2.78281491	     -3.22278941	     62.39500930	      1.08899835	     27.64876129	    -20.43772487	     -7.49999987	     43.49029643	      5.71054723	     13.45223312	     57.57829461	      1.00493082	     26.20284931	    -22.44093668	     -7.49999987	    -46.10945463	      6.18313880	     -1.24926616	     58.44755978	    -11.74572351	     28.38326020	     31.41057155	     82.83001294	     68.59553283	    -10.03739115	     44.72141417	     32.94237191	     68.48978037
      3.94583330	    -20.22047268	     -0.76478926	      2.77624233	     -0.86094837	      1.13002590	     -0.09625149	     48.31340407	     -2.26495073	     -2.95347497	     62.97271568	      1.09908123	     27.92867704	    -20.73050430	     -7.49999987	     43.68986183	      5.24449656	     13.04226278	     58.20803287	      1.01592182	     26.73609992	    -22.56693392	     -7.49999987	    -45.39534947	      5.76544164	     -0.96402337	     59.67613531	    -11.40653604	     28.26411053	     31.91586576	     82.79075986	     69.60893596	     -9.46654062	     44.53841685	     33.52332366	     68.43926582
      3.95000000	    -21.22619733	     -0.48035164	      2.26778830	     -0.86540750	      1.12289643	     -0.09979979	     49.95433909	     -1.97845631	     -2.11137361	     63.75752326	      1.11277870	     28.05577467	    -21.49244552	     -7.49999987	     45.36548360	      4.99000085	     11.93923856	     59.13815443	      1.03215551	     27.91638336	    -21.63302455	     -7.49999987	    -43.54934252	      5.03593089	     -0.69758364	     60.57935760	    -11.63765524	     27.99696382	     33.27541550	     82.83623492	     70.22917325	     -8.68838254	     43.82410194	     34.88049177	     68.19663622
      3.95416670	    -21.88019685	     -0.19914993	      1.64050453	     -0.86326892	      1.12287868	     -0.10290401	     51.20853036	     -1.94986774	     -1.33028875	     64.43677966	      1.12463396	     28.37261637	    -20.80504643	     -7.49999987	     46.37350759	      4.96937127	     11.19413833	     59.89359769	      1.04534048	     28.37833630	    -21.24688399	     -7.49999987	    -42.31428569	      4.61808512	     -0.41902699	     61.90585451	    -11.64505860	     27.79440565	     34.26158960	     82.95704515	     70.87322020	     -8.00747849	     43.11009133	     35.87062845	     68.03495888
      3.95833330	    -22.07589975	     -0.13564062	      1.43156382	     -0.85760362	      1.12405150	     -0.09988235	     51.39432738	     -1.81562533	     -0.83426738	     64.51243947	      1.12595448	     28.39839068	    -20.62240305	     -7.49999987	     46.39195959	      5.05400237	     11.24224250	     59.96944480	      1.04666426	     28.52154048	    -21.22486390	     -7.49999987	    -41.59177932	      4.60099563	     -0.37366281	     63.19249662	    -11.21828773	     27.70050584	     34.73451381	     82.96594814	     71.42882321	     -7.34184679	     43.03257934	     36.19383126	     68.02636748
      3.96250000	    -23.04142572	      0.42484909	      0.78355956	     -0.85586460	      1.12061232	     -0.10320049	     52.85942453	     -2.00109390	      0.08641859	     65.22266856	      1.13835031	     28.69090847	    -19.59115789	     -7.49999987	     47.27609439	      5.27881712	     10.30415696	     60.17426309	      1.05023902	     29.28717517	    -20.54306684	     -7.49999987	    -40.03178383	      4.07729508	     -0.30492672	     64.17622577	    -11.11242132	     27.39842329	     36.01870001	     83.69468117	     70.98648429	     -6.88390947	     39.90875379	     38.32489919	     67.87094918
      3.96666670	    -23.15779835	      0.51883707	      0.53495728	     -0.84822450	      1.12152301	     -0.10362614	     52.80971742	     -2.04713371	      0.41781050	     65.50509666	      1.14327961	     28.48475397	    -19.44353628	     -7.49999987	     46.80908588	      5.47097510	     10.32732066	     59.95651495	      1.04643859	     29.44323016	    -20.53949716	     -7.49999987	    -39.19342250	      4.23815247	     -0.18363082	     65.23319953	    -10.75892949	     27.33122722	     36.37160107	     83.71058543	     71.04214784	     -6.19396321	     40.00023362	     38.58202601	     67.89629737
      3.97083330	    -23.20040861	      1.22129851	      0.32804466	     -0.83961974	      1.11864345	     -0.09990867	     52.68791286	     -2.38388306	      1.21516786	     66.19190947	      1.15526676	     28.24713358	    -19.68250115	     -7.49999987	     46.09776558	      5.86912361	      9.60509871	     59.65894309	      1.04124499	     29.80597228	    -20.59079859	     -7.49999987	    -38.40081153	      3.58777812	     -0.21693205	     65.97317261	    -10.73377907	     27.31472084	     36.87323946	     83.87986725	     71.08599257	     -5.67436469	     39.81733323	     39.32637697	     67.98118157
      3.97500000	    -23.09951549	      1.50397458	      0.42332710	     -0.83549932	      1.12003084	     -0.09746445	     51.96740631	     -2.34698428	      1.62889010	     66.07598361	      1.15324347	     28.58439523	    -19.58530162	     -7.49999987	     45.15441406	      6.00591241	      9.51143571	     59.06589422	      1.03089433	     29.84606595	    -20.56031594	     -7.49999987	    -37.79840077	      3.43233987	     -0.25138862	     66.65514473	    -10.54066078	     26.99982673	     38.10899307	     83.25113522	     70.99909466	     -5.25061902	     38.97543524	     40.80572605	     67.74069871
      3.97916670	    -23.38104836	      1.60598951	      0.67402767	     -0.83110834	      1.11087570	     -0.09331592	     51.96772354	     -2.17069003	      1.86658408	     66.68736515	      1.16391409	     29.19286190	    -20.03445612	     -7.49999987	     45.10026291	      6.00546435	      9.53583452	     59.32936253	      1.03549272	     30.03912504	    -20.85149518	     -7.49999987	    -36.58143651	      3.40687691	     -0.35081139	     66.98212678	    -10.13384840	     25.63661223	     39.26845237	     88.29790345	     70.56698543	     -4.85492883	     36.96249156	     42.66894942	     71.84465729
      3.98333330	    -23.37502687	      1.61857910	      0.97376355	     -0.82870366	      1.12237247	     -0.09192823	     51.15671224	     -1.95199729	      1.87330121	     66.11238424	      1.15387878	     28.94899792	    -20.85372878	     -7.49999987	     44.54858059	      5.89170003	      9.59263289	     58.97579423	      1.02932179	     29.54865221	    -20.99599254	     -7.49999987	    -35.93146978	      3.33043335	     -0.22032837	     67.53417174	     -9.99203962	     25.24193549	     40.26933481	     86.39431927	     70.76559145	     -4.16999890	     36.55648754	     43.82295028	     71.01163986
      3.98750000	    -23.74417113	      1.64805471	      1.18227721	     -0.82348232	      1.12326175	     -0.09006138	     50.90090639	     -1.80982516	      1.81578911	     65.75128414	      1.14757640	     28.93452677	    -21.25120098	     -7.49999987	     44.36439592	      5.74646825	      9.63142239	     58.60863500	      1.02291365	     29.34184713	    -20.91811117	     -7.49999987	    -34.77136300	      3.20248264	     -0.21368988	     67.81471872	     -9.86324464	     25.09580514	     41.82208290	     85.13316451	     70.84652534	     -3.85345216	     36.40439926	     45.41066011	     70.29631270
      3.99166670	    -22.92159064	      1.37487773	      1.47075271	     -0.82189770	      1.12515096	     -0.08625342	     49.16150515	     -1.32835515	      1.51549121	     64.82411053	      1.13139416	     27.75749046	    -23.24881666	     -7.49999987	     42.82846612	      5.24728156	      9.87255906	     57.84184332	      1.00953061	     28.72293896	    -20.91009410	     -7.49999987	    -35.28350146	      3.19928830	     -0.06159800	     69.12280311	     -9.55560720	     24.91600825	     42.06411396	     84.53587251	     71.91887105	     -3.23636101	     36.31781318	     46.10150030	     69.97870862
      3.99583330	    -23.05758836	      1.15218747	      1.59452535	     -0.81804112	      1.11426203	     -0.08465551	     49.28498580	     -0.81363999	      1.47525646	     65.24875232	      1.13880556	     27.94034749	    -24.37924604	     -7.49999987	     43.12460811	      4.71531125	      9.85355456	     58.35807237	      1.01854051	     29.16191619	    -20.42932249	     -7.49999987	    -34.20176240	      3.11554775	     -0.21457495	     69.92140702	     -9.16966287	     25.24280137	     42.85379673	     84.67675327	     72.43822300	     -3.24561531	     36.60082933	     47.19050167	     70.05824045
      4.00000000	    -23.07906537	      1.06887090	      1.54680813	     -0.80719518	      1.11806328	     -0.08957261	     48.77005056	     -0.69489547	      1.52675706	     65.21596332	      1.13823328	     27.95455434	    -24.42984565	     -7.49999987	     42.68205663	      4.61900534	      9.93997950	     58.26706465	      1.01695212	     29.23085280	    -20.40596542	     -7.49999987	    -33.10242503	      3.06385850	     -0.28999070	     70.41147125	     -8.86719278	     25.26568129	     43.13658552	     84.69671493	     72.65058198	     -2.78713062	     36.64448553	     47.53459530	     70.07082653
      4.00416670	    -22.96784969	      0.88357644	      1.33224747	     -0.80195200	      1.11563396	     -0.09316140	     48.14207847	     -0.53453099	      1.68472839	     65.13704589	      1.13685592	     28.10567475	    -24.51098161	     -7.49999987	     42.06366565	      4.54627454	      9.98958251	     58.27948949	      1.01716898	     30.17619310	    -20.04773855	     -7.49999987	    -32.22827228	      3.45879086	     -0.20239065	     70.93528867	     -8.98354535	     25.94566244	     44.61994572	     83.89472015	     72.23846020	     -3.02490223	     35.90324580	     50.36132039	     69.57374104
